/vscmnt/brussel_pixiu_data/_data_brussel/112/vsc11236/PredSimResults/SUBJ09opt3D/expIG/worker_01.mot
version=1
nRows=4
nColumns=50
inDegrees=yes
endheader
                time	         pelvis_tilt	         pelvis_list	     pelvis_rotation	           pelvis_tx	           pelvis_ty	           pelvis_tz	       hip_flexion_r	     hip_adduction_r	      hip_rotation_r	        knee_angle_r	       ankle_angle_r	         mtp_angle_r	       hip_flexion_l	     hip_adduction_l	      hip_rotation_l	        knee_angle_l	       ankle_angle_l	         mtp_angle_l	    lumbar_extension	      lumbar_bending	     lumbar_rotation	 ercspn_r/activation	 intobl_r/activation	 extobl_r/activation	    abd_r/activation	    add_r/activation	hamstrings_r/activation	bifemsh_r/activation	glut_max_r/activation	iliopsoas_r/activation	rect_fem_r/activation	  vasti_r/activation	gastroc_r/activation	 soleus_r/activation	tib_ant_r/activation	 ercspn_l/activation	 intobl_l/activation	 extobl_l/activation	    abd_l/activation	    add_l/activation	hamstrings_l/activation	bifemsh_l/activation	glut_max_l/activation	iliopsoas_l/activation	rect_fem_l/activation	  vasti_l/activation	gastroc_l/activation	 soleus_l/activation	tib_ant_l/activation	
          1.77697514	         -1.49202047	         -0.44544192	          3.82982134	          1.06618509	          1.00862168	         -0.01080663	         20.72387625	         -1.15452128	        -10.93702785	         -1.01358457	          0.36576096	          0.21616739	         -7.77313054	         -2.01121181	        -15.08287548	         -8.14899825	         14.32341107	         12.36700001	        -15.30236903	         -3.73078467	         -4.69319705	          0.01106137	          0.17703447	          0.09599441	          0.00999999	          0.17329822	          0.02557827	          0.07374460	          0.01671699	          0.08178675	          0.05902226	          0.01749650	          0.00999999	          0.00999999	          0.25335829	          0.00999999	          0.00999999	          0.00999999	          0.08725440	          0.00999999	          0.00999999	          0.18803660	          0.01652590	          0.03259368	          0.00999999	          0.00999999	          0.17038016	          0.17638465	          0.01586247	
          1.79474489	         -1.59255093	         -0.37000910	          3.67160335	          1.08084469	          1.00610950	         -0.00899229	         20.03355686	         -1.02796812	        -11.19431251	         -1.02765626	         -0.10975753	          0.20805360	         -8.21501219	         -2.16283188	        -15.53618333	         -8.92406333	         14.56979631	         13.46422776	        -14.92186845	         -3.30294644	         -4.66974191	          0.00999999	          0.19836162	          0.07406047	          0.01607945	          0.13370099	          0.02035419	          0.10960919	          0.01289730	          0.06309915	          0.04553615	          0.01349869	          0.01310696	          0.01296161	          0.27982148	          0.00999999	          0.00999999	          0.01680036	          0.06731748	          0.01296162	          0.03482884	          0.15295602	          0.03272487	          0.02514629	          0.00999999	          0.00999999	          0.17639116	          0.18793529	          0.01223802	
          1.81251465	         -1.68158167	         -0.36029570	          3.47961714	          1.09596751	          1.00393380	         -0.00706462	         19.30225967	         -0.87730356	        -11.58287021	         -0.98938470	         -0.88292336	          0.20277097	         -8.64790103	         -2.39402848	        -16.07636915	         -9.76666555	         14.63781016	         14.65659574	        -14.49368518	         -2.77512485	         -4.63054775	          0.00999999	          0.18166984	          0.05713826	          0.04537402	          0.10315141	          0.03369059	          0.08456439	          0.00999999	          0.04868151	          0.03513152	          0.01041435	          0.01011213	          0.00999999	          0.31810089	          0.00999999	          0.00999999	          0.01296161	          0.05193599	          0.00999999	          0.04010250	          0.11800682	          0.03575720	          0.01940057	          0.00999999	          0.00999999	          0.16883650	          0.18916792	          0.00999999	
          1.83028440	         -1.76201792	         -0.38132623	          3.24118530	          1.11119614	          1.00244453	         -0.00502738	         18.66673746	         -0.72346628	        -12.16714354	         -1.14558759	         -1.57663520	          0.18249388	         -9.01089299	         -2.67135291	        -16.72565628	        -10.73075557	         14.42161623	         15.95499946	        -14.06096390	         -2.18880326	         -4.58121650	          0.00999999	          0.14015977	          0.04408264	          0.06855505	          0.07958216	          0.04865316	          0.06524212	          0.02455598	          0.03755818	          0.02710425	          0.01911560	          0.00999999	          0.00999999	          0.34104091	          0.00999999	          0.00999999	          0.00999999	          0.04006904	          0.00999999	          0.04061519	          0.09104323	          0.03255839	          0.01496770	          0.00999999	          0.00999999	          0.14859264	          0.18049959	          0.00999999	
